<svg version="1.1" id="Layer_1" xmlns="http://www.w3.org/2000/svg" xmlns:xlink="http://www.w3.org/1999/xlink" x="0px" y="0px"
	 width="100%" viewBox="0 0 666 666" enable-background="new 0 0 666 666" xml:space="preserve">
<path fill="#F3F3F4" opacity="1.000000" stroke="none" 
	d="
M368.000000,667.000000 
	C245.333359,667.000000 123.166710,667.000000 1.000049,667.000000 
	C1.000033,445.000061 1.000033,223.000122 1.000016,1.000139 
	C222.999893,1.000092 444.999786,1.000092 666.999756,1.000046 
	C666.999878,222.999863 666.999878,444.999725 666.999939,666.999756 
	C567.500000,667.000000 468.000000,667.000000 368.000000,667.000000 
M239.841995,501.819641 
	C239.965622,501.947052 240.089233,502.074432 239.973206,502.831665 
	C231.594513,513.120361 223.215820,523.409058 214.577866,534.016174 
	C217.299408,536.133301 219.322556,537.707153 221.561798,539.449036 
	C230.754852,525.725281 241.065063,513.697693 251.398117,504.112457 
	C256.271057,505.356964 259.746002,507.345459 262.798279,506.830170 
	C274.912781,504.785065 284.141022,497.858673 290.282593,487.362976 
	C291.385498,485.478149 290.380920,481.335205 288.891754,479.302948 
	C287.820465,477.841034 284.021240,477.212646 281.975830,477.873749 
	C277.785065,479.228333 273.958099,481.705322 269.975250,483.708069 
	C268.924805,484.236298 267.852051,484.720184 266.789551,485.224457 
	C267.286346,482.967255 268.373322,481.539948 269.642883,480.299438 
	C274.287201,475.761353 279.114899,471.401672 283.578979,466.695404 
	C284.560760,465.660339 284.332458,463.477417 284.661377,461.823090 
	C282.823395,461.583771 280.485382,460.521149 279.248871,461.272156 
	C276.456329,462.968170 274.306915,465.682953 271.721344,467.766785 
	C260.222839,477.033966 248.743546,486.329224 237.062424,495.362305 
	C234.478104,497.360748 231.101349,498.334503 228.089478,499.780090 
	C227.698105,499.286926 227.306717,498.793762 226.915344,498.300598 
	C228.687622,495.626984 230.215546,492.744385 232.284805,490.324768 
	C236.178009,485.772339 240.460495,481.554047 244.394699,477.034546 
	C245.184891,476.126740 245.745117,473.597778 245.383423,473.356323 
	C243.884644,472.355865 242.009872,471.551392 240.236328,471.469238 
	C239.192337,471.420837 238.088745,472.877014 236.995728,473.633026 
	C231.402176,477.502167 225.803284,481.363586 219.843887,484.814148 
	C219.717667,484.681244 219.591431,484.548370 219.805664,483.840332 
	C220.660080,482.632782 221.721741,481.518433 222.317444,480.194489 
	C223.094894,478.466553 223.503326,476.572540 224.070526,474.750000 
	C221.966522,474.956909 219.518387,474.547150 217.826019,475.491638 
	C213.533722,477.887024 209.580307,480.889618 205.117142,483.156189 
	C204.976562,483.005310 204.835968,482.854431 204.896408,482.025787 
	C205.554199,480.876495 206.172516,479.702362 206.878082,478.583191 
	C208.318741,476.298035 208.615692,473.758270 205.921188,472.745575 
	C204.671539,472.275970 202.369370,473.836761 200.889618,474.940125 
	C198.936569,476.396423 197.551819,478.666443 195.523560,479.961487 
	C186.580429,485.671783 177.522507,491.205109 168.429123,496.674438 
	C167.018906,497.522644 165.208450,497.705414 163.583084,498.195892 
	C163.144165,497.718384 162.705261,497.240845 162.266342,496.763306 
	C167.632050,489.227203 172.997742,481.691101 178.363449,474.154999 
	C178.185257,473.637787 178.007080,473.120544 177.828888,472.603333 
	C174.863068,473.284576 170.624985,472.964905 169.160049,474.826965 
	C163.889954,481.525543 159.500610,488.925598 154.931595,496.157318 
	C154.294067,497.166412 154.236603,498.747864 154.381485,500.010345 
	C155.071609,506.024292 160.462524,509.068451 166.753479,506.051788 
	C172.671234,503.214050 177.968979,499.083405 184.091309,496.055237 
	C184.289139,496.215363 184.486954,496.375458 184.281876,497.097595 
	C183.815918,498.605377 183.349960,500.113129 182.884003,501.620911 
	C184.817978,501.728058 187.278366,502.647858 188.591843,501.797058 
	C193.435150,498.659882 197.898865,494.936707 202.806473,491.795074 
	C202.806473,491.795074 203.139084,492.127472 202.930191,492.784393 
	C201.953125,494.128662 200.644424,495.347687 200.078278,496.847076 
	C199.269333,498.989441 199.003891,501.337036 198.506363,503.596985 
	C200.923050,503.230560 203.745834,503.532410 205.673416,502.361115 
	C209.914993,499.783630 213.697327,496.452667 217.682800,493.450073 
	C218.859253,492.563751 220.088120,491.747040 221.292953,490.898407 
	C221.252106,492.650146 220.625504,493.610138 220.062119,494.605865 
	C217.831940,498.547333 217.222595,502.708893 220.508972,506.147369 
	C223.767014,509.556183 227.850586,508.576752 231.539795,506.521088 
	C234.291275,504.987915 236.857880,503.122986 239.841995,501.819641 
M398.879425,492.844147 
	C399.019867,492.993225 399.160309,493.142334 399.150604,494.058777 
	C397.649445,498.161774 397.076141,502.319855 400.913483,505.368347 
	C404.601044,508.297852 408.736755,507.250580 412.568024,505.337738 
	C415.354340,503.946655 417.985931,502.245789 421.104034,501.088898 
	C421.250610,501.216125 421.397156,501.343384 421.198761,502.047974 
	C412.595306,512.564514 403.991852,523.081055 395.083649,533.970093 
	C397.835510,536.098450 399.862671,537.666321 401.306122,538.782715 
	C411.947998,526.359070 422.249908,514.332275 432.551788,502.305542 
	C432.836792,503.055359 433.121796,503.805176 433.406769,504.554993 
	C436.719971,505.378998 440.236633,507.362488 443.310577,506.823120 
	C455.563995,504.672882 464.993256,497.824921 470.965729,486.912201 
	C471.947693,485.118103 470.906464,481.300232 469.484955,479.403198 
	C468.388611,477.940002 464.714813,476.879974 463.082001,477.618774 
	C456.943146,480.396301 451.170868,483.984039 444.862701,486.876068 
	C444.722351,486.753357 444.582031,486.630676 444.806061,485.947327 
	C451.197174,479.621735 457.697510,473.399475 463.874176,466.871033 
	C464.930328,465.754730 464.603607,463.330048 464.915710,461.509796 
	C463.047424,461.444794 460.827606,460.711853 459.391266,461.467712 
	C457.103424,462.671661 455.088348,464.657898 453.390900,466.677277 
	C442.201324,479.989410 427.375183,488.272125 412.482544,496.460602 
	C410.949860,497.303284 409.110443,497.588013 407.413330,498.131622 
	C406.985626,497.612640 406.557922,497.093628 406.130188,496.574646 
	C411.448914,489.125183 416.767639,481.675720 422.261078,473.981506 
	C418.011932,472.099487 414.984467,473.163330 411.321106,475.802002 
	C401.112671,483.155090 390.585144,490.109802 379.815430,496.612030 
	C376.566772,498.573395 372.113464,498.539520 368.026489,499.461456 
	C367.585114,489.428131 381.114319,476.291016 391.627228,476.250793 
	C388.303009,478.910583 385.575439,481.092957 382.750549,483.353210 
	C386.618073,485.589844 391.029236,485.139771 395.283447,481.920532 
	C398.170746,479.735687 401.747009,477.171051 400.050018,473.037628 
	C398.301361,468.778351 393.794861,469.548462 390.348938,470.308929 
	C381.275543,472.311340 373.278748,476.479462 366.385376,482.924744 
	C358.513275,490.285095 349.337097,495.571838 338.771820,498.150177 
	C336.634735,498.671692 334.393860,498.767944 330.848480,499.240448 
	C332.382080,495.550781 333.392334,493.120270 334.101196,491.414825 
	C337.323456,491.414825 339.966736,492.207367 341.639282,491.269226 
	C347.097626,488.207581 352.484589,484.856262 357.289795,480.880157 
	C358.983337,479.478760 360.026062,475.633850 359.400238,473.474335 
	C358.458984,470.226471 354.778717,468.604126 351.589813,470.014313 
	C345.619080,472.654602 339.805695,475.769775 334.257050,479.218628 
	C325.244263,484.820587 316.567535,490.962433 307.570374,496.590973 
	C306.041382,497.547424 303.619232,497.076172 301.609711,497.264526 
	C302.096985,494.978729 301.938751,492.196106 303.224854,490.525116 
	C305.089111,488.102844 307.881104,486.312500 310.479797,484.551270 
	C324.179382,475.266418 337.367706,465.387268 347.352356,451.962097 
	C348.434540,450.507019 348.766083,447.136200 347.819214,445.905701 
	C346.843201,444.637329 343.490417,443.956970 341.841888,444.634888 
	C320.324188,453.483368 304.427704,468.517090 294.224335,489.399048 
	C291.348236,495.285156 292.069275,502.998627 295.409729,505.330078 
	C300.907532,509.167175 305.948578,506.331848 310.646271,503.371246 
	C315.080811,500.576385 319.259766,497.376007 323.837189,494.152618 
	C323.908142,495.287567 323.972626,495.927155 323.984436,496.567719 
	C324.154449,505.769623 327.791351,508.682343 336.592499,506.153229 
	C340.707153,504.970825 344.677979,503.178497 348.565186,501.346802 
	C351.954193,499.749939 355.134186,497.709595 358.569366,495.773407 
	C359.831116,506.715790 363.905884,509.687012 373.972839,505.541443 
	C382.511017,502.025452 390.352631,496.817932 398.879425,492.844147 
M272.244293,288.297760 
	C274.125549,292.190765 276.153259,296.020569 277.864136,299.987091 
	C288.390991,324.392395 295.205536,349.887268 300.080139,375.953705 
	C300.393738,377.630737 301.144684,380.356659 302.158417,380.592743 
	C310.120453,382.447113 318.196259,383.812988 326.667816,385.410645 
	C325.927032,373.433136 325.265076,362.730133 324.580292,351.658295 
	C317.173035,352.315521 310.451904,352.911865 303.669067,353.513672 
	C303.339874,352.369934 303.108063,351.760284 302.990814,351.129364 
	C295.903992,313.003204 294.264343,274.761414 300.922028,236.403641 
	C309.416779,187.461624 330.353546,144.850754 365.839783,109.713303 
	C366.721283,108.840469 367.436157,107.799362 368.685364,106.282181 
	C333.623505,99.012909 301.175568,104.088905 269.986633,120.294212 
	C304.982819,155.483566 299.569794,196.408569 286.351959,218.953918 
	C278.869263,215.784760 269.150543,206.225494 263.427155,196.094894 
	C251.247238,174.536072 252.550171,151.766556 258.083649,127.718575 
	C235.081451,144.179138 218.509918,164.382599 207.887985,189.709579 
	C212.982925,189.709579 217.310043,189.241089 221.498260,189.804764 
	C230.920914,191.072906 238.548737,196.259628 245.524902,202.307800 
	C261.260315,215.950012 270.973846,232.210373 266.808228,254.049683 
	C265.686340,259.931519 262.419891,266.006653 263.283508,271.498383 
	C264.177826,277.185333 268.893372,282.271332 272.244293,288.297760 
M347.888031,373.709198 
	C348.594269,377.406982 349.300537,381.104797 350.051147,385.034973 
	C352.870422,384.671906 355.162354,384.109833 357.446503,384.139923 
	C361.782928,384.197052 363.285919,382.627106 363.436340,377.988770 
	C365.178802,324.247894 378.746277,273.210999 399.420624,223.877518 
	C400.653442,220.935760 400.632233,218.816849 399.035492,216.090195 
	C391.843506,203.808838 390.882568,191.467712 398.627899,178.838684 
	C403.231384,171.332550 407.106018,163.382156 411.396698,155.680710 
	C415.655853,148.035858 420.025787,140.452713 424.413116,132.726273 
	C411.641693,122.881386 398.172424,115.493248 383.444946,110.314354 
	C380.046997,109.119469 379.009460,110.733170 378.065125,113.367218 
	C371.729889,131.037827 364.559937,148.455017 359.159485,166.405350 
	C348.080688,203.229813 342.703766,241.121277 341.279388,279.498993 
	C340.117279,310.809326 340.161896,342.120422 347.888031,373.709198 
M417.877228,360.376709 
	C487.280243,311.779694 492.993958,223.543121 457.358215,170.262512 
	C453.062653,180.615082 448.511444,190.782684 444.608215,201.193222 
	C439.719879,214.231232 430.381073,221.261292 416.891418,223.200699 
	C413.644623,223.667511 411.843994,225.020645 410.621979,228.357132 
	C397.945679,262.967682 390.498413,298.679291 388.340546,335.421478 
	C387.556824,348.765564 388.214447,362.194305 388.214447,377.153107 
	C398.573639,371.333221 407.937958,366.072266 417.877228,360.376709 
M273.246735,332.140472 
	C269.435181,314.006256 263.288513,296.662933 255.762619,279.758514 
	C254.307587,276.490295 252.557098,275.201080 248.803024,274.943787 
	C227.015549,273.450226 210.928528,263.535156 202.856979,242.493668 
	C201.202347,238.180252 199.773895,233.780075 197.814438,228.205917 
	C194.489960,262.531403 201.541504,293.237946 219.640976,321.108612 
	C234.277405,343.646637 253.745087,360.895447 279.887848,372.814911 
	C277.589111,358.500183 275.537354,345.723541 273.246735,332.140472 
M143.510117,496.033905 
	C147.945648,492.349274 151.751465,487.975311 149.693741,481.913605 
	C147.682388,475.988495 141.939728,475.264221 136.492371,474.921173 
	C130.679733,474.555115 124.846184,474.458160 119.048752,473.941071 
	C116.285393,473.694580 113.584587,472.746887 110.635559,472.066071 
	C117.090225,459.570862 153.457214,447.945374 168.759918,453.335358 
	C162.067017,459.424438 152.637390,458.437866 144.818726,463.719727 
	C154.197891,465.845306 162.260773,465.637817 169.711807,461.850708 
	C172.617081,460.374054 176.638062,456.740051 176.404785,454.474335 
	C176.065964,451.183197 172.613342,447.963196 169.931763,445.266602 
	C168.565643,443.892853 166.001389,443.176361 163.949631,443.113586 
	C156.199966,442.876343 148.324020,442.186249 140.706238,443.219940 
	C127.047676,445.073273 114.926689,450.746399 105.415955,461.154541 
	C98.195801,469.055939 99.858856,476.490540 110.193878,478.894257 
	C117.362556,480.561554 124.974823,480.372681 132.398590,480.867615 
	C135.491760,481.073853 138.610153,480.901855 141.717087,480.901855 
	C142.055008,481.399475 142.392929,481.897125 142.730865,482.394745 
	C141.222122,484.222534 140.067520,486.651825 138.148026,487.782013 
	C124.131233,496.034790 108.349274,498.370331 91.483841,501.599976 
	C93.647942,499.761261 94.792435,498.788849 96.513718,497.326355 
	C90.654579,498.309265 85.621857,499.094696 80.618408,500.035767 
	C79.417786,500.261627 77.409256,500.921021 77.353073,501.527496 
	C77.232582,502.828064 77.751686,504.933990 78.699852,505.456573 
	C82.548317,507.577759 86.562668,510.520844 90.687935,510.824768 
	C109.678604,512.223816 127.143257,507.146667 143.510117,496.033905 
M472.191559,503.131042 
	C474.867798,504.414368 477.645905,506.905457 480.195770,506.690399 
	C483.779236,506.388123 487.361603,504.376801 490.633911,502.542419 
	C494.150665,500.571075 497.308228,497.958923 500.952362,495.394287 
	C501.254303,496.690155 501.431396,497.315186 501.543457,497.951660 
	C503.050507,506.512207 506.129059,508.577820 514.690979,506.072479 
	C518.794189,504.871826 522.768250,503.068481 526.597046,501.134613 
	C531.001953,498.909851 535.181580,496.239044 539.622925,493.666992 
	C539.839172,494.435791 540.021423,494.867676 540.077759,495.315430 
	C541.455078,506.262329 547.011536,509.254211 557.004639,504.395325 
	C558.347778,503.742249 559.750183,503.122284 560.924255,502.224274 
	C570.170776,495.152069 579.390869,488.044525 588.547913,480.857147 
	C589.511108,480.101105 590.013855,478.758362 590.730286,477.687836 
	C590.391296,477.350708 590.052307,477.013580 589.713318,476.676453 
	C582.726929,481.201385 575.740479,485.726349 568.338379,490.520508 
	C569.651917,483.962860 570.795044,478.484619 571.831726,472.986267 
	C572.373047,470.115204 571.341003,468.455353 568.272522,467.536499 
	C565.206909,466.618622 563.352600,467.572845 561.206360,469.575806 
	C550.214417,479.834320 538.442505,489.102264 524.693054,495.400238 
	C520.200378,497.458130 515.151062,498.300751 510.356354,499.699158 
	C509.940430,499.130371 509.524506,498.561615 509.108582,497.992828 
	C510.103088,495.579407 511.097626,493.165985 511.886353,491.251923 
	C514.788452,491.439178 517.341553,492.415741 518.849548,491.557037 
	C524.576294,488.296082 530.234131,484.770996 535.322449,480.615692 
	C536.927917,479.304535 537.938904,474.878876 536.948914,473.370697 
	C535.666199,471.416565 531.633606,469.484070 529.621643,470.133698 
	C524.070129,471.926392 518.686768,474.643036 513.722717,477.766266 
	C504.192413,483.762512 495.033234,490.346069 485.625031,496.541565 
	C484.215424,497.469788 482.290649,497.615662 480.604187,498.123444 
	C480.200073,497.607056 479.795990,497.090668 479.391907,496.574280 
	C484.711945,489.118866 490.032013,481.663452 495.704559,473.714050 
	C491.880981,472.762787 488.178162,471.729462 485.752502,474.980743 
	C480.911896,481.469116 476.381592,488.223877 472.245392,495.179169 
	C471.168152,496.990570 472.016296,499.946960 472.191559,503.131042 
M279.123077,195.475235 
	C280.730042,200.287186 282.336975,205.099136 283.943939,209.911087 
	C281.907104,182.133148 276.051270,155.319931 266.486511,129.344467 
	C268.217102,151.599030 272.636658,173.326385 279.123077,195.475235 
M419.043335,170.613464 
	C423.097290,162.076859 426.894897,153.404572 431.311584,145.059967 
	C433.575775,140.782257 432.927582,138.409668 428.184082,136.645157 
	C420.907410,151.923035 413.570770,167.143463 406.512756,182.491974 
	C405.945129,183.726379 407.294128,185.842148 407.752441,187.548340 
	C409.195587,186.767517 411.286224,186.350601 411.966187,185.140823 
	C414.479034,180.670029 416.525757,175.937241 419.043335,170.613464 
M429.228058,166.683899 
	C425.938507,173.591843 422.652740,180.501587 419.357208,187.406677 
	C418.313965,189.592514 417.125671,192.263412 420.201599,193.196671 
	C421.425842,193.568100 423.559937,191.257156 425.135864,189.988556 
	C425.720703,189.517807 425.895050,188.535919 426.253998,187.785889 
	C431.423431,176.983994 436.415527,166.091766 441.850006,155.424881 
	C443.977234,151.249573 443.143768,148.790558 438.891144,146.527588 
	C435.730103,153.170517 432.669128,159.603226 429.228058,166.683899 
M444.838135,166.239456 
	C440.557709,175.224304 436.137024,184.147385 432.126434,193.251114 
	C431.406250,194.885895 432.377777,197.265945 432.568237,199.301926 
	C434.265076,198.242737 436.748718,197.585968 437.529877,196.058502 
	C442.286407,186.757812 446.385803,177.116043 451.274292,167.890030 
	C453.532043,163.628922 452.807983,160.905350 448.965088,157.975296 
	C447.635162,160.592926 446.378143,163.067032 444.838135,166.239456 
M499.647247,466.133575 
	C501.344971,465.128052 503.312775,464.391937 504.662384,463.039062 
	C505.940308,461.758057 506.988770,459.898285 507.272736,458.152313 
	C507.382233,457.479034 505.112396,455.681519 503.917419,455.672913 
	C500.462006,455.648041 494.626556,461.305756 495.258453,464.037384 
	C495.492310,465.048279 497.665344,465.610626 499.647247,466.133575 
M184.168427,456.655457 
	C183.349289,457.221130 182.423737,457.680359 181.731033,458.372559 
	C179.675659,460.426453 176.481476,462.660706 179.046310,465.644318 
	C179.840851,466.568665 183.876297,464.846344 186.359039,464.105011 
	C187.235947,463.843201 188.261490,463.040588 188.598480,462.227600 
	C189.278214,460.587708 189.532608,458.771545 189.962433,457.028076 
	C188.232666,456.773193 186.502914,456.518341 184.168427,456.655457 
M433.665405,460.751770 
	C434.596100,457.984802 434.009918,454.817871 430.913544,455.781677 
	C427.653290,456.796478 424.982544,459.958099 422.337067,462.478577 
	C421.816528,462.974487 422.244415,465.067139 422.883270,465.958923 
	C423.282867,466.516693 425.145355,466.643768 425.918060,466.203552 
	C428.441467,464.765930 430.766083,462.979340 433.665405,460.751770 
z"/>
<path fill="#ED881E" opacity="1.000000" stroke="none" 
	d="
M272.090912,287.958984 
	C268.893372,282.271332 264.177826,277.185333 263.283508,271.498383 
	C262.419891,266.006653 265.686340,259.931519 266.808228,254.049683 
	C270.973846,232.210373 261.260315,215.950012 245.524902,202.307800 
	C238.548737,196.259628 230.920914,191.072906 221.498260,189.804764 
	C217.310043,189.241089 212.982925,189.709579 207.887985,189.709579 
	C218.509918,164.382599 235.081451,144.179138 258.083649,127.718575 
	C252.550171,151.766556 251.247238,174.536072 263.427155,196.094894 
	C269.150543,206.225494 278.869263,215.784760 286.351959,218.953918 
	C299.569794,196.408569 304.982819,155.483566 269.986633,120.294212 
	C301.175568,104.088905 333.623505,99.012909 368.685364,106.282181 
	C367.436157,107.799362 366.721283,108.840469 365.839783,109.713303 
	C330.353546,144.850754 309.416779,187.461624 300.922028,236.403641 
	C294.264343,274.761414 295.903992,313.003204 302.990814,351.129364 
	C303.108063,351.760284 303.339874,352.369934 303.669067,353.513672 
	C310.451904,352.911865 317.173035,352.315521 324.580292,351.658295 
	C325.265076,362.730133 325.927032,373.433136 326.667816,385.410645 
	C318.196259,383.812988 310.120453,382.447113 302.158417,380.592743 
	C301.144684,380.356659 300.393738,377.630737 300.080139,375.953705 
	C295.205536,349.887268 288.390991,324.392395 277.864136,299.987091 
	C276.153259,296.020569 274.125549,292.190765 272.090912,287.958984 
z"/>
<path fill="#ED881D" opacity="1.000000" stroke="none" 
	d="
M347.811707,373.287537 
	C340.161896,342.120422 340.117279,310.809326 341.279388,279.498993 
	C342.703766,241.121277 348.080688,203.229813 359.159485,166.405350 
	C364.559937,148.455017 371.729889,131.037827 378.065125,113.367218 
	C379.009460,110.733170 380.046997,109.119469 383.444946,110.314354 
	C398.172424,115.493248 411.641693,122.881386 424.413116,132.726273 
	C420.025787,140.452713 415.655853,148.035858 411.396698,155.680710 
	C407.106018,163.382156 403.231384,171.332550 398.627899,178.838684 
	C390.882568,191.467712 391.843506,203.808838 399.035492,216.090195 
	C400.632233,218.816849 400.653442,220.935760 399.420624,223.877518 
	C378.746277,273.210999 365.178802,324.247894 363.436340,377.988770 
	C363.285919,382.627106 361.782928,384.197052 357.446503,384.139923 
	C355.162354,384.109833 352.870422,384.671906 350.051147,385.034973 
	C349.300537,381.104797 348.594269,377.406982 347.811707,373.287537 
z"/>
<path fill="#ED881E" opacity="1.000000" stroke="none" 
	d="
M417.589752,360.593994 
	C407.937958,366.072266 398.573639,371.333221 388.214447,377.153107 
	C388.214447,362.194305 387.556824,348.765564 388.340546,335.421478 
	C390.498413,298.679291 397.945679,262.967682 410.621979,228.357132 
	C411.843994,225.020645 413.644623,223.667511 416.891418,223.200699 
	C430.381073,221.261292 439.719879,214.231232 444.608215,201.193222 
	C448.511444,190.782684 453.062653,180.615082 457.358215,170.262512 
	C492.993958,223.543121 487.280243,311.779694 417.589752,360.593994 
M448.648560,299.046417 
	C457.989594,278.538391 459.128204,257.150238 455.862091,235.126968 
	C419.472687,247.287094 393.641754,302.536011 409.371765,334.649658 
	C427.069824,328.235229 440.036102,316.640594 448.648560,299.046417 
z"/>
<path fill="#F89722" opacity="1.000000" stroke="none" 
	d="
M445.261292,487.268250 
	C451.170868,483.984039 456.943146,480.396301 463.082001,477.618774 
	C464.714813,476.879974 468.388611,477.940002 469.484955,479.403198 
	C470.906464,481.300232 471.947693,485.118103 470.965729,486.912201 
	C464.993256,497.824921 455.563995,504.672882 443.310577,506.823120 
	C440.236633,507.362488 436.719971,505.378998 433.406769,504.554993 
	C433.121796,503.805176 432.836792,503.055359 432.551788,502.305542 
	C422.249908,514.332275 411.947998,526.359070 401.306122,538.782715 
	C399.862671,537.666321 397.835510,536.098450 395.083649,533.970093 
	C403.991852,523.081055 412.595306,512.564514 421.505829,501.535706 
	C421.757538,500.771118 421.702148,500.518829 421.646759,500.266541 
	C421.326660,500.405365 421.006592,500.544189 420.686523,500.683044 
	C417.985931,502.245789 415.354340,503.946655 412.568024,505.337738 
	C408.736755,507.250580 404.601044,508.297852 400.913483,505.368347 
	C397.076141,502.319855 397.649445,498.161774 399.435608,493.481506 
	C399.314575,492.722443 398.908508,492.540680 398.502441,492.358887 
	C390.352631,496.817932 382.511017,502.025452 373.972839,505.541443 
	C363.905884,509.687012 359.831116,506.715790 358.569366,495.773407 
	C355.134186,497.709595 351.954193,499.749939 348.565186,501.346802 
	C344.677979,503.178497 340.707153,504.970825 336.592499,506.153229 
	C327.791351,508.682343 324.154449,505.769623 323.984436,496.567719 
	C323.972626,495.927155 323.908142,495.287567 323.837189,494.152618 
	C319.259766,497.376007 315.080811,500.576385 310.646271,503.371246 
	C305.948578,506.331848 300.907532,509.167175 295.409729,505.330078 
	C292.069275,502.998627 291.348236,495.285156 294.224335,489.399048 
	C304.427704,468.517090 320.324188,453.483368 341.841888,444.634888 
	C343.490417,443.956970 346.843201,444.637329 347.819214,445.905701 
	C348.766083,447.136200 348.434540,450.507019 347.352356,451.962097 
	C337.367706,465.387268 324.179382,475.266418 310.479797,484.551270 
	C307.881104,486.312500 305.089111,488.102844 303.224854,490.525116 
	C301.938751,492.196106 302.096985,494.978729 301.609711,497.264526 
	C303.619232,497.076172 306.041382,497.547424 307.570374,496.590973 
	C316.567535,490.962433 325.244263,484.820587 334.257050,479.218628 
	C339.805695,475.769775 345.619080,472.654602 351.589813,470.014313 
	C354.778717,468.604126 358.458984,470.226471 359.400238,473.474335 
	C360.026062,475.633850 358.983337,479.478760 357.289795,480.880157 
	C352.484589,484.856262 347.097626,488.207581 341.639282,491.269226 
	C339.966736,492.207367 337.323456,491.414825 334.101196,491.414825 
	C333.392334,493.120270 332.382080,495.550781 330.848480,499.240448 
	C334.393860,498.767944 336.634735,498.671692 338.771820,498.150177 
	C349.337097,495.571838 358.513275,490.285095 366.385376,482.924744 
	C373.278748,476.479462 381.275543,472.311340 390.348938,470.308929 
	C393.794861,469.548462 398.301361,468.778351 400.050018,473.037628 
	C401.747009,477.171051 398.170746,479.735687 395.283447,481.920532 
	C391.029236,485.139771 386.618073,485.589844 382.750549,483.353210 
	C385.575439,481.092957 388.303009,478.910583 391.627228,476.250793 
	C381.114319,476.291016 367.585114,489.428131 368.026489,499.461456 
	C372.113464,498.539520 376.566772,498.573395 379.815430,496.612030 
	C390.585144,490.109802 401.112671,483.155090 411.321106,475.802002 
	C414.984467,473.163330 418.011932,472.099487 422.261078,473.981506 
	C416.767639,481.675720 411.448914,489.125183 406.130188,496.574646 
	C406.557922,497.093628 406.985626,497.612640 407.413330,498.131622 
	C409.110443,497.588013 410.949860,497.303284 412.482544,496.460602 
	C427.375183,488.272125 442.201324,479.989410 453.390900,466.677277 
	C455.088348,464.657898 457.103424,462.671661 459.391266,461.467712 
	C460.827606,460.711853 463.047424,461.444794 464.915710,461.509796 
	C464.603607,463.330048 464.930328,465.754730 463.874176,466.871033 
	C457.697510,473.399475 451.197174,479.621735 444.422485,486.457275 
	C444.061920,487.236359 444.084900,487.505493 444.107910,487.774658 
	C444.492371,487.605835 444.876831,487.437042 445.261292,487.268250 
M339.674072,486.151489 
	C345.088715,483.888367 349.550537,480.488556 353.174042,476.088623 
	C352.643433,475.475464 352.112823,474.862305 351.582214,474.249146 
	C347.400879,478.172943 343.219543,482.096771 338.719940,486.134186 
	C338.797577,486.071564 338.875214,486.008972 339.674072,486.151489 
M335.925171,453.780396 
	C328.253937,461.161072 320.582672,468.541718 312.503387,476.138123 
	C312.820312,476.273987 313.137268,476.409851 314.096649,476.311157 
	C321.792877,468.931915 329.489105,461.552643 337.648804,453.909515 
	C337.637543,453.665985 337.626282,453.422485 337.615021,453.178925 
	C337.255402,453.281097 336.895813,453.383270 335.925171,453.780396 
M440.618134,501.019653 
	C451.379456,496.488129 461.209106,489.166534 462.605408,483.012054 
	C453.794861,488.908325 444.984283,494.804596 436.173737,500.700867 
	C436.376190,501.083344 436.578644,501.465851 436.781128,501.848358 
	C437.826935,501.623444 438.872772,501.398529 440.618134,501.019653 
z"/>
<path fill="#ED891F" opacity="1.000000" stroke="none" 
	d="
M273.366150,332.543701 
	C275.537354,345.723541 277.589111,358.500183 279.887848,372.814911 
	C253.745087,360.895447 234.277405,343.646637 219.640976,321.108612 
	C201.541504,293.237946 194.489960,262.531403 197.814438,228.205917 
	C199.773895,233.780075 201.202347,238.180252 202.856979,242.493668 
	C210.928528,263.535156 227.015549,273.450226 248.803024,274.943787 
	C252.557098,275.201080 254.307587,276.490295 255.762619,279.758514 
	C263.288513,296.662933 269.435181,314.006256 273.366150,332.543701 
M243.309906,326.260590 
	C248.312607,328.463898 253.315308,330.667175 258.625763,333.006012 
	C261.609680,311.262054 245.576920,288.805023 223.798782,286.282990 
	C225.247604,301.927856 229.541428,315.975067 243.309906,326.260590 
z"/>
<path fill="#F89722" opacity="1.000000" stroke="none" 
	d="
M183.539520,495.521606 
	C177.968979,499.083405 172.671234,503.214050 166.753479,506.051788 
	C160.462524,509.068451 155.071609,506.024292 154.381485,500.010345 
	C154.236603,498.747864 154.294067,497.166412 154.931595,496.157318 
	C159.500610,488.925598 163.889954,481.525543 169.160049,474.826965 
	C170.624985,472.964905 174.863068,473.284576 177.828888,472.603333 
	C178.007080,473.120544 178.185257,473.637787 178.363449,474.154999 
	C172.997742,481.691101 167.632050,489.227203 162.266342,496.763306 
	C162.705261,497.240845 163.144165,497.718384 163.583084,498.195892 
	C165.208450,497.705414 167.018906,497.522644 168.429123,496.674438 
	C177.522507,491.205109 186.580429,485.671783 195.523560,479.961487 
	C197.551819,478.666443 198.936569,476.396423 200.889618,474.940125 
	C202.369370,473.836761 204.671539,472.275970 205.921188,472.745575 
	C208.615692,473.758270 208.318741,476.298035 206.878082,478.583191 
	C206.172516,479.702362 205.554199,480.876495 204.577759,482.551758 
	C204.669815,483.268158 205.080505,483.458618 205.491196,483.649048 
	C209.580307,480.889618 213.533722,477.887024 217.826019,475.491638 
	C219.518387,474.547150 221.966522,474.956909 224.070526,474.750000 
	C223.503326,476.572540 223.094894,478.466553 222.317444,480.194489 
	C221.721741,481.518433 220.660080,482.632782 219.400803,484.290619 
	C218.802048,485.063873 218.608139,485.386871 218.414246,485.709869 
	C219.011597,485.549164 219.608932,485.388458 220.206268,485.227722 
	C225.803284,481.363586 231.402176,477.502167 236.995728,473.633026 
	C238.088745,472.877014 239.192337,471.420837 240.236328,471.469238 
	C242.009872,471.551392 243.884644,472.355865 245.383423,473.356323 
	C245.745117,473.597778 245.184891,476.126740 244.394699,477.034546 
	C240.460495,481.554047 236.178009,485.772339 232.284805,490.324768 
	C230.215546,492.744385 228.687622,495.626984 226.915344,498.300598 
	C227.306717,498.793762 227.698105,499.286926 228.089478,499.780090 
	C231.101349,498.334503 234.478104,497.360748 237.062424,495.362305 
	C248.743546,486.329224 260.222839,477.033966 271.721344,467.766785 
	C274.306915,465.682953 276.456329,462.968170 279.248871,461.272156 
	C280.485382,460.521149 282.823395,461.583771 284.661377,461.823090 
	C284.332458,463.477417 284.560760,465.660339 283.578979,466.695404 
	C279.114899,471.401672 274.287201,475.761353 269.642883,480.299438 
	C268.373322,481.539948 267.286346,482.967255 266.789551,485.224457 
	C267.852051,484.720184 268.924805,484.236298 269.975250,483.708069 
	C273.958099,481.705322 277.785065,479.228333 281.975830,477.873749 
	C284.021240,477.212646 287.820465,477.841034 288.891754,479.302948 
	C290.380920,481.335205 291.385498,485.478149 290.282593,487.362976 
	C284.141022,497.858673 274.912781,504.785065 262.798279,506.830170 
	C259.746002,507.345459 256.271057,505.356964 251.398117,504.112457 
	C241.065063,513.697693 230.754852,525.725281 221.561798,539.449036 
	C219.322556,537.707153 217.299408,536.133301 214.577866,534.016174 
	C223.215820,523.409058 231.594513,513.120361 240.340668,502.360291 
	C240.699051,501.614532 240.690002,501.340118 240.680954,501.065735 
	C240.289581,501.179108 239.898209,501.292450 239.506836,501.405823 
	C236.857880,503.122986 234.291275,504.987915 231.539795,506.521088 
	C227.850586,508.576752 223.767014,509.556183 220.508972,506.147369 
	C217.222595,502.708893 217.831940,498.547333 220.062119,494.605865 
	C220.625504,493.610138 221.252106,492.650146 221.292953,490.898407 
	C220.088120,491.747040 218.859253,492.563751 217.682800,493.450073 
	C213.697327,496.452667 209.914993,499.783630 205.673416,502.361115 
	C203.745834,503.532410 200.923050,503.230560 198.506363,503.596985 
	C199.003891,501.337036 199.269333,498.989441 200.078278,496.847076 
	C200.644424,495.347687 201.953125,494.128662 203.286804,492.322754 
	C203.637802,491.595001 203.632172,491.328888 203.626541,491.062805 
	C203.252808,491.186523 202.879074,491.310242 202.505341,491.433929 
	C197.898865,494.936707 193.435150,498.659882 188.591843,501.797058 
	C187.278366,502.647858 184.817978,501.728058 182.884003,501.620911 
	C183.349960,500.113129 183.815918,498.605377 184.638580,496.671448 
	C185.194992,496.041412 185.374283,495.820923 185.748810,495.346680 
	C185.893875,494.764587 185.823334,494.419739 185.752777,494.074860 
	C185.413376,494.292511 185.073990,494.510193 184.501160,494.802795 
	C183.966965,495.026733 183.724243,495.241364 183.539520,495.521606 
M259.798187,501.114624 
	C268.804779,497.352203 276.854706,492.276550 282.766388,484.234863 
	C272.782471,488.135590 264.382812,494.387482 256.784760,501.964874 
	C257.556458,501.746582 258.328186,501.528259 259.798187,501.114624 
M265.489868,485.505127 
	C264.752716,486.092041 264.015564,486.678986 263.278381,487.265900 
	C263.488586,487.501953 263.698792,487.738037 263.908997,487.974121 
	C264.586914,487.354492 265.264832,486.734894 265.489868,485.505127 
z"/>
<path fill="#F89723" opacity="1.000000" stroke="none" 
	d="
M143.233856,496.264709 
	C127.143257,507.146667 109.678604,512.223816 90.687935,510.824768 
	C86.562668,510.520844 82.548317,507.577759 78.699852,505.456573 
	C77.751686,504.933990 77.232582,502.828064 77.353073,501.527496 
	C77.409256,500.921021 79.417786,500.261627 80.618408,500.035767 
	C85.621857,499.094696 90.654579,498.309265 96.513718,497.326355 
	C94.792435,498.788849 93.647942,499.761261 91.483841,501.599976 
	C108.349274,498.370331 124.131233,496.034790 138.148026,487.782013 
	C140.067520,486.651825 141.222122,484.222534 142.730865,482.394745 
	C142.392929,481.897125 142.055008,481.399475 141.717087,480.901855 
	C138.610153,480.901855 135.491760,481.073853 132.398590,480.867615 
	C124.974823,480.372681 117.362556,480.561554 110.193878,478.894257 
	C99.858856,476.490540 98.195801,469.055939 105.415955,461.154541 
	C114.926689,450.746399 127.047676,445.073273 140.706238,443.219940 
	C148.324020,442.186249 156.199966,442.876343 163.949631,443.113586 
	C166.001389,443.176361 168.565643,443.892853 169.931763,445.266602 
	C172.613342,447.963196 176.065964,451.183197 176.404785,454.474335 
	C176.638062,456.740051 172.617081,460.374054 169.711807,461.850708 
	C162.260773,465.637817 154.197891,465.845306 144.818726,463.719727 
	C152.637390,458.437866 162.067017,459.424438 168.759918,453.335358 
	C153.457214,447.945374 117.090225,459.570862 110.635559,472.066071 
	C113.584587,472.746887 116.285393,473.694580 119.048752,473.941071 
	C124.846184,474.458160 130.679733,474.555115 136.492371,474.921173 
	C141.939728,475.264221 147.682388,475.988495 149.693741,481.913605 
	C151.751465,487.975311 147.945648,492.349274 143.233856,496.264709 
z"/>
<path fill="#F89824" opacity="1.000000" stroke="none" 
	d="
M472.085846,502.754272 
	C472.016296,499.946960 471.168152,496.990570 472.245392,495.179169 
	C476.381592,488.223877 480.911896,481.469116 485.752502,474.980743 
	C488.178162,471.729462 491.880981,472.762787 495.704559,473.714050 
	C490.032013,481.663452 484.711945,489.118866 479.391907,496.574280 
	C479.795990,497.090668 480.200073,497.607056 480.604187,498.123444 
	C482.290649,497.615662 484.215424,497.469788 485.625031,496.541565 
	C495.033234,490.346069 504.192413,483.762512 513.722717,477.766266 
	C518.686768,474.643036 524.070129,471.926392 529.621643,470.133698 
	C531.633606,469.484070 535.666199,471.416565 536.948914,473.370697 
	C537.938904,474.878876 536.927917,479.304535 535.322449,480.615692 
	C530.234131,484.770996 524.576294,488.296082 518.849548,491.557037 
	C517.341553,492.415741 514.788452,491.439178 511.886353,491.251923 
	C511.097626,493.165985 510.103088,495.579407 509.108582,497.992828 
	C509.524506,498.561615 509.940430,499.130371 510.356354,499.699158 
	C515.151062,498.300751 520.200378,497.458130 524.693054,495.400238 
	C538.442505,489.102264 550.214417,479.834320 561.206360,469.575806 
	C563.352600,467.572845 565.206909,466.618622 568.272522,467.536499 
	C571.341003,468.455353 572.373047,470.115204 571.831726,472.986267 
	C570.795044,478.484619 569.651917,483.962860 568.338379,490.520508 
	C575.740479,485.726349 582.726929,481.201385 589.713318,476.676453 
	C590.052307,477.013580 590.391296,477.350708 590.730286,477.687836 
	C590.013855,478.758362 589.511108,480.101105 588.547913,480.857147 
	C579.390869,488.044525 570.170776,495.152069 560.924255,502.224274 
	C559.750183,503.122284 558.347778,503.742249 557.004639,504.395325 
	C547.011536,509.254211 541.455078,506.262329 540.077759,495.315430 
	C540.021423,494.867676 539.839172,494.435791 539.622925,493.666992 
	C535.181580,496.239044 531.001953,498.909851 526.597046,501.134613 
	C522.768250,503.068481 518.794189,504.871826 514.690979,506.072479 
	C506.129059,508.577820 503.050507,506.512207 501.543457,497.951660 
	C501.431396,497.315186 501.254303,496.690155 500.952362,495.394287 
	C497.308228,497.958923 494.150665,500.571075 490.633911,502.542419 
	C487.361603,504.376801 483.779236,506.388123 480.195770,506.690399 
	C477.645905,506.905457 474.867798,504.414368 472.085846,502.754272 
M519.892822,485.076752 
	C523.720703,482.179443 527.548584,479.282135 531.376465,476.384827 
	C530.828003,475.713287 530.279480,475.041748 529.731018,474.370209 
	C525.881714,477.686218 522.032349,481.002258 517.665161,484.593658 
	C517.532776,484.979218 517.400391,485.364807 517.268066,485.750397 
	C517.919922,485.582428 518.571777,485.414490 519.892822,485.076752 
M550.470764,484.972931 
	C547.363586,487.423279 544.256348,489.873596 541.149170,492.323914 
	C541.887512,491.747040 542.625854,491.170166 543.364197,490.593262 
	C543.759338,492.130859 543.695862,494.079834 544.636292,495.128265 
	C547.361694,498.166534 551.039490,498.405792 553.920349,495.771790 
	C558.991882,491.134888 561.225647,485.081207 560.093323,477.306152 
	C557.058594,479.698273 554.023804,482.090393 550.470764,484.972931 
z"/>
<path fill="#ED8E29" opacity="1.000000" stroke="none" 
	d="
M279.035187,195.082764 
	C272.636658,173.326385 268.217102,151.599030 266.486511,129.344467 
	C276.051270,155.319931 281.907104,182.133148 283.943939,209.911087 
	C282.336975,205.099136 280.730042,200.287186 279.035187,195.082764 
z"/>
<path fill="#ED8B25" opacity="1.000000" stroke="none" 
	d="
M418.895508,170.958191 
	C416.525757,175.937241 414.479034,180.670029 411.966187,185.140823 
	C411.286224,186.350601 409.195587,186.767517 407.752441,187.548340 
	C407.294128,185.842148 405.945129,183.726379 406.512756,182.491974 
	C413.570770,167.143463 420.907410,151.923035 428.184082,136.645157 
	C432.927582,138.409668 433.575775,140.782257 431.311584,145.059967 
	C426.894897,153.404572 423.097290,162.076859 418.895508,170.958191 
z"/>
<path fill="#ED8C25" opacity="1.000000" stroke="none" 
	d="
M429.418091,166.359924 
	C432.669128,159.603226 435.730103,153.170517 438.891144,146.527588 
	C443.143768,148.790558 443.977234,151.249573 441.850006,155.424881 
	C436.415527,166.091766 431.423431,176.983994 426.253998,187.785889 
	C425.895050,188.535919 425.720703,189.517807 425.135864,189.988556 
	C423.559937,191.257156 421.425842,193.568100 420.201599,193.196671 
	C417.125671,192.263412 418.313965,189.592514 419.357208,187.406677 
	C422.652740,180.501587 425.938507,173.591843 429.418091,166.359924 
z"/>
<path fill="#ED8C26" opacity="1.000000" stroke="none" 
	d="
M444.979645,165.890289 
	C446.378143,163.067032 447.635162,160.592926 448.965088,157.975296 
	C452.807983,160.905350 453.532043,163.628922 451.274292,167.890030 
	C446.385803,177.116043 442.286407,186.757812 437.529877,196.058502 
	C436.748718,197.585968 434.265076,198.242737 432.568237,199.301910 
	C432.377777,197.265945 431.406250,194.885895 432.126434,193.251114 
	C436.137024,184.147385 440.557709,175.224304 444.979645,165.890289 
z"/>
<path fill="#F89A29" opacity="1.000000" stroke="none" 
	d="
M499.300598,466.255554 
	C497.665344,465.610626 495.492310,465.048279 495.258453,464.037384 
	C494.626556,461.305756 500.462006,455.648041 503.917419,455.672913 
	C505.112396,455.681519 507.382233,457.479034 507.272736,458.152313 
	C506.988770,459.898285 505.940308,461.758057 504.662384,463.039062 
	C503.312775,464.391937 501.344971,465.128052 499.300598,466.255554 
z"/>
<path fill="#F89A29" opacity="1.000000" stroke="none" 
	d="
M184.470795,456.459473 
	C186.502914,456.518341 188.232666,456.773193 189.962433,457.028076 
	C189.532608,458.771545 189.278214,460.587708 188.598480,462.227600 
	C188.261490,463.040588 187.235947,463.843201 186.359039,464.105011 
	C183.876297,464.846344 179.840851,466.568665 179.046310,465.644318 
	C176.481476,462.660706 179.675659,460.426453 181.731033,458.372559 
	C182.423737,457.680359 183.349289,457.221130 184.470795,456.459473 
z"/>
<path fill="#F89926" opacity="1.000000" stroke="none" 
	d="
M433.416260,461.039368 
	C430.766083,462.979340 428.441467,464.765930 425.918060,466.203552 
	C425.145355,466.643768 423.282867,466.516693 422.883270,465.958923 
	C422.244415,465.067139 421.816528,462.974487 422.337067,462.478577 
	C424.982544,459.958099 427.653290,456.796478 430.913544,455.781677 
	C434.009918,454.817871 434.596100,457.984802 433.416260,461.039368 
z"/>
<path fill="#F3F1F0" opacity="1.000000" stroke="none" 
	d="
M448.454529,299.368469 
	C440.036102,316.640594 427.069824,328.235229 409.371765,334.649658 
	C393.641754,302.536011 419.472687,247.287094 455.862091,235.126968 
	C459.128204,257.150238 457.989594,278.538391 448.454529,299.368469 
M421.370728,301.850983 
	C419.916077,305.562317 418.408752,309.254059 417.022095,312.990631 
	C415.721161,316.496246 414.547882,320.049255 413.318451,323.581390 
	C413.774750,323.744476 414.231049,323.907562 414.687378,324.070648 
	C428.707153,301.020508 439.805573,276.644043 448.409424,251.135071 
	C447.644043,250.774567 446.878662,250.414062 446.113312,250.053558 
	C437.985382,267.094330 429.857422,284.135101 421.370728,301.850983 
z"/>
<path fill="#F3EEE8" opacity="1.000000" stroke="none" 
	d="
M440.268372,501.096619 
	C438.872772,501.398529 437.826935,501.623444 436.781128,501.848358 
	C436.578644,501.465851 436.376190,501.083344 436.173737,500.700867 
	C444.984283,494.804596 453.794861,488.908325 462.605408,483.012054 
	C461.209106,489.166534 451.379456,496.488129 440.268372,501.096619 
z"/>
<path fill="#F4E8DB" opacity="1.000000" stroke="none" 
	d="
M312.911407,475.922363 
	C320.582672,468.541718 328.253937,461.161072 336.387695,453.809875 
	C336.850220,453.839386 337.185364,454.173401 337.185364,454.173401 
	C329.489105,461.552643 321.792877,468.931915 313.650269,476.263397 
	C313.203888,476.215637 312.911407,475.922363 312.911407,475.922363 
z"/>
<path fill="#F3ECE4" opacity="1.000000" stroke="none" 
	d="
M339.038177,486.020569 
	C343.219543,482.096771 347.400879,478.172943 351.582214,474.249146 
	C352.112823,474.862305 352.643433,475.475464 353.174042,476.088623 
	C349.550537,480.488556 345.088715,483.888367 339.333496,486.068970 
	C338.992889,485.986481 339.038177,486.020569 339.038177,486.020569 
z"/>
<path fill="#F4E8DB" opacity="1.000000" stroke="none" 
	d="
M313.329041,476.380676 
	C313.137268,476.409851 312.820312,476.273987 312.707397,476.030243 
	C312.911407,475.922363 313.203888,476.215637 313.329041,476.380676 
z"/>
<path fill="#F3ECE4" opacity="1.000000" stroke="none" 
	d="
M338.972870,485.966431 
	C338.875214,486.008972 338.797577,486.071564 338.879059,486.077393 
	C339.038177,486.020569 338.992889,485.986481 338.972870,485.966431 
z"/>
<path fill="#F3F3F4" opacity="1.000000" stroke="none" 
	d="
M445.062012,487.072144 
	C444.876831,487.437042 444.492371,487.605835 444.107910,487.774658 
	C444.084900,487.505493 444.061920,487.236359 444.240295,486.737579 
	C444.582031,486.630676 444.722351,486.753357 445.062012,487.072144 
z"/>
<path fill="#F3F3F4" opacity="1.000000" stroke="none" 
	d="
M398.690918,492.601501 
	C398.908508,492.540680 399.314575,492.722443 399.510712,493.097839 
	C399.160309,493.142334 399.019867,492.993225 398.690918,492.601501 
z"/>
<path fill="#F3F3F4" opacity="1.000000" stroke="none" 
	d="
M420.895264,500.885956 
	C421.006592,500.544189 421.326660,500.405365 421.646759,500.266541 
	C421.702148,500.518829 421.757538,500.771118 421.678314,501.247009 
	C421.397156,501.343384 421.250610,501.216125 420.895264,500.885956 
z"/>
<path fill="#F4E8DB" opacity="1.000000" stroke="none" 
	d="
M336.693237,453.662415 
	C336.895813,453.383270 337.255402,453.281097 337.615021,453.178955 
	C337.626282,453.422485 337.637543,453.665985 337.417084,454.041443 
	C337.185364,454.173401 336.850220,453.839386 336.693237,453.662415 
z"/>
<path fill="#F3F0EE" opacity="1.000000" stroke="none" 
	d="
M242.993546,326.085114 
	C229.541428,315.975067 225.247604,301.927856 223.798782,286.282990 
	C245.576920,288.805023 261.609680,311.262054 258.625763,333.006012 
	C253.315308,330.667175 248.312607,328.463898 242.993546,326.085114 
M235.126953,298.324890 
	C234.021255,297.489777 232.915573,296.654633 231.809875,295.819519 
	C231.523483,296.137939 231.237091,296.456360 230.950699,296.774780 
	C237.997070,306.163300 245.043442,315.551819 252.089798,324.940308 
	C252.616867,324.564270 253.143921,324.188263 253.670990,323.812225 
	C248.501648,314.917603 242.279877,306.733521 235.126953,298.324890 
z"/>
<path fill="#F3ECE5" opacity="1.000000" stroke="none" 
	d="
M259.449036,501.212280 
	C258.328186,501.528259 257.556458,501.746582 256.784760,501.964874 
	C264.382812,494.387482 272.782471,488.135590 282.766388,484.234863 
	C276.854706,492.276550 268.804779,497.352203 259.449036,501.212280 
z"/>
<path fill="#F3F3F4" opacity="1.000000" stroke="none" 
	d="
M265.716309,485.810211 
	C265.264832,486.734894 264.586914,487.354492 263.908997,487.974121 
	C263.698792,487.738037 263.488586,487.501953 263.278381,487.265900 
	C264.015564,486.678986 264.752716,486.092041 265.716309,485.810211 
z"/>
<path fill="#F3F3F4" opacity="1.000000" stroke="none" 
	d="
M220.025085,485.020935 
	C219.608932,485.388458 219.011597,485.549164 218.414246,485.709869 
	C218.608139,485.386871 218.802048,485.063873 219.230560,484.578186 
	C219.591431,484.548370 219.717667,484.681244 220.025085,485.020935 
z"/>
<path fill="#F3F3F4" opacity="1.000000" stroke="none" 
	d="
M205.304169,483.402649 
	C205.080505,483.458618 204.669815,483.268158 204.477249,482.890625 
	C204.835968,482.854431 204.976562,483.005310 205.304169,483.402649 
z"/>
<path fill="#F3F3F4" opacity="1.000000" stroke="none" 
	d="
M202.655914,491.614502 
	C202.879074,491.310242 203.252808,491.186523 203.626541,491.062805 
	C203.632172,491.328888 203.637802,491.595001 203.391266,491.994263 
	C203.139084,492.127472 202.806473,491.795074 202.655914,491.614502 
z"/>
<path fill="#F3F3F4" opacity="1.000000" stroke="none" 
	d="
M184.734604,494.727875 
	C185.073990,494.510193 185.413376,494.292511 185.752777,494.074860 
	C185.823334,494.419739 185.893875,494.764587 185.553970,495.128174 
	C185.007202,495.007202 184.870895,494.867523 184.734604,494.727875 
z"/>
<path fill="#F3F3F4" opacity="1.000000" stroke="none" 
	d="
M185.338348,495.365387 
	C185.374283,495.820923 185.194992,496.041412 184.840027,496.390442 
	C184.486954,496.375458 184.289139,496.215363 183.815414,495.788422 
	C183.724243,495.241364 183.966965,495.026733 184.501160,494.802795 
	C184.870895,494.867523 185.007202,495.007202 185.338348,495.365387 
z"/>
<path fill="#F3F3F4" opacity="1.000000" stroke="none" 
	d="
M239.674408,501.612732 
	C239.898209,501.292450 240.289581,501.179108 240.680954,501.065735 
	C240.690002,501.340118 240.699051,501.614532 240.460480,502.045380 
	C240.089233,502.074432 239.965622,501.947052 239.674408,501.612732 
z"/>
<path fill="#F3F1EF" opacity="1.000000" stroke="none" 
	d="
M550.729919,484.727722 
	C554.023804,482.090393 557.058594,479.698273 560.093323,477.306152 
	C561.225647,485.081207 558.991882,491.134888 553.920349,495.771790 
	C551.039490,498.405792 547.361694,498.166534 544.636292,495.128265 
	C543.695862,494.079834 543.759338,492.130859 543.364197,490.593262 
	C542.625854,491.170166 541.887512,491.747040 541.149170,492.323914 
	C544.256348,489.873596 547.363586,487.423279 550.729919,484.727722 
z"/>
<path fill="#F3EEE8" opacity="1.000000" stroke="none" 
	d="
M518.183044,484.318298 
	C522.032349,481.002258 525.881714,477.686218 529.731018,474.370209 
	C530.279480,475.041748 530.828003,475.713287 531.376465,476.384827 
	C527.548584,479.282135 523.720703,482.179443 519.314331,484.911377 
	C518.551636,484.603424 518.367310,484.460846 518.183044,484.318298 
z"/>
<path fill="#F3EEE8" opacity="1.000000" stroke="none" 
	d="
M518.979736,484.996277 
	C518.571777,485.414490 517.919922,485.582428 517.268066,485.750397 
	C517.400391,485.364807 517.532776,484.979218 517.924072,484.455994 
	C518.367310,484.460846 518.551636,484.603424 518.979736,484.996277 
z"/>
<path fill="#ED8D28" opacity="1.000000" stroke="none" 
	d="
M421.550110,301.513428 
	C429.857422,284.135101 437.985382,267.094330 446.113312,250.053558 
	C446.878662,250.414062 447.644043,250.774567 448.409424,251.135071 
	C439.805573,276.644043 428.707153,301.020508 414.687378,324.070648 
	C414.231049,323.907562 413.774750,323.744476 413.318451,323.581390 
	C414.547882,320.049255 415.721161,316.496246 417.022095,312.990631 
	C418.408752,309.254059 419.916077,305.562317 421.550110,301.513428 
z"/>
<path fill="#ED912F" opacity="1.000000" stroke="none" 
	d="
M235.355225,298.597351 
	C242.279877,306.733521 248.501648,314.917603 253.670990,323.812225 
	C253.143921,324.188263 252.616867,324.564270 252.089798,324.940308 
	C245.043442,315.551819 237.997070,306.163300 230.950699,296.774780 
	C231.237091,296.456360 231.523483,296.137939 231.809875,295.819519 
	C232.915573,296.654633 234.021255,297.489777 235.355225,298.597351 
z"/>
</svg>